<svg xmlns="http://www.w3.org/2000/svg" width="81.618" height="12.951" viewBox="0 0 81.618 12.951">
  <g id="Group_6" data-name="Group 6" transform="translate(522.618 -392)">
    <path id="Icon_feather-star" data-name="Icon feather-star" d="M9.809,3l2.1,4.263,4.705.688-3.4,3.316.8,4.685L9.809,13.738,5.6,15.951l.8-4.685L3,7.95l4.705-.688Z" transform="translate(-525.618 389)" fill="#ee3024"/>
    <path id="Icon_feather-star-2" data-name="Icon feather-star" d="M9.809,3l2.1,4.263,4.705.688-3.4,3.316.8,4.685L9.809,13.738,5.6,15.951l.8-4.685L3,7.95l4.705-.688Z" transform="translate(-508.618 389)" fill="#ee3024"/>
    <path id="Icon_feather-star-3" data-name="Icon feather-star" d="M9.809,3l2.1,4.263,4.705.688-3.4,3.316.8,4.685L9.809,13.738,5.6,15.951l.8-4.685L3,7.95l4.705-.688Z" transform="translate(-491.618 389)" fill="#ee3024"/>
    <path id="Icon_feather-star-4" data-name="Icon feather-star" d="M9.809,3l2.1,4.263,4.705.688-3.4,3.316.8,4.685L9.809,13.738,5.6,15.951l.8-4.685L3,7.95l4.705-.688Z" transform="translate(-474.618 389)" fill="#ee3024"/>
    <path id="Icon_feather-star-5" data-name="Icon feather-star" d="M9.809,3l2.1,4.263,4.705.688-3.4,3.316.8,4.685L9.809,13.738,5.6,15.951l.8-4.685L3,7.95l4.705-.688Z" transform="translate(-457.618 389)" fill="#ee3024"/>
  </g>
</svg>
