<svg xmlns="http://www.w3.org/2000/svg" width="20.5" height="21.5" viewBox="0 0 20.5 21.5">
  <g id="Group_167" data-name="Group 167" transform="translate(-678.25 -2969.25)">
    <path id="Vector" d="M8.5,6.52V1.98C8.5.57,7.86,0,6.27,0H2.23C.64,0,0,.57,0,1.98V6.51C0,7.93.64,8.49,2.23,8.49H6.27C7.86,8.5,8.5,7.93,8.5,6.52Z" transform="translate(679 2970)" fill="none" stroke="#2a5ce3" stroke-linecap="round" stroke-linejoin="round" stroke-width="1.5"/>
    <path id="Vector-2" data-name="Vector" d="M8.5,6.27V2.23C8.5.64,7.86,0,6.27,0H2.23C.64,0,0,.64,0,2.23V6.27C0,7.86.64,8.5,2.23,8.5H6.27C7.86,8.5,8.5,7.86,8.5,6.27Z" transform="translate(679 2981.5)" fill="none" stroke="#2a5ce3" stroke-linecap="round" stroke-linejoin="round" stroke-width="1.5"/>
    <path id="Vector-3" data-name="Vector" d="M0,0H6" transform="translate(692 2983.5)" fill="none" stroke="#2a5ce3" stroke-linecap="round" stroke-width="1.5"/>
    <path id="Vector-4" data-name="Vector" d="M0,0H6" transform="translate(692 2972.245)" fill="none" stroke="#2a5ce3" stroke-linecap="round" stroke-width="1.5"/>
    <path id="Vector-5" data-name="Vector" d="M0,0H6" transform="translate(692 2987.5)" fill="none" stroke="#2a5ce3" stroke-linecap="round" stroke-width="1.5"/>
    <path id="Vector-6" data-name="Vector" d="M0,0H6" transform="translate(692 2976.245)" fill="none" stroke="#2a5ce3" stroke-linecap="round" stroke-width="1.5"/>
  </g>
</svg>
