<svg xmlns="http://www.w3.org/2000/svg" width="20.615" height="24.802" viewBox="0 0 20.615 24.802">
  <g id="Group_2" data-name="Group 2" transform="translate(-429.75 -188.322)">
    <path id="Vector" d="M19.115,7.788C19.115,3.483,14.831,0,9.557,0S0,3.483,0,7.788C.026,7.865,19.115,7.788,19.115,7.788Z" transform="translate(430.5 204.577)" fill="#f0efff" stroke="#292d32" stroke-linecap="round" stroke-linejoin="round" stroke-width="1.5"/>
    <path id="Vector-2" data-name="Vector" d="M12.13,4.393V8.959a2.119,2.119,0,0,1-1.048,1.822l-3.965,2.29a2.112,2.112,0,0,1-2.1,0l-3.965-2.29A2.1,2.1,0,0,1,0,8.959V4.393A2.119,2.119,0,0,1,1.048,2.57L5.013.28a2.112,2.112,0,0,1,2.1,0l3.965,2.29A2.111,2.111,0,0,1,12.13,4.393Z" transform="translate(433.838 189)" fill="#f0efff" stroke="#292d32" stroke-linecap="round" stroke-linejoin="round" stroke-width="1.3"/>
  </g>
</svg>
