<svg xmlns="http://www.w3.org/2000/svg" width="17.028" height="17.018" viewBox="0 0 17.028 17.018">
  <path id="fi-rr-home" d="M16.4,6.441,11.023,1.058a3.553,3.553,0,0,0-5.018,0L.624,6.441A2.113,2.113,0,0,0,0,7.945V14.91a2.128,2.128,0,0,0,2.128,2.128H14.9a2.128,2.128,0,0,0,2.128-2.128V7.945A2.113,2.113,0,0,0,16.4,6.441ZM10.642,15.62H6.385V12.829a2.128,2.128,0,0,1,4.257,0Zm4.966-.709a.709.709,0,0,1-.709.709H12.061V12.829a3.547,3.547,0,0,0-7.095,0V15.62H2.128a.709.709,0,0,1-.709-.709V7.945a.715.715,0,0,1,.208-.5l5.381-5.38a2.134,2.134,0,0,1,3.011,0L15.4,7.446a.715.715,0,0,1,.208.5Z" transform="translate(0 -0.021)" fill="#2a5ce3"/>
</svg>
